<?xml version="1.0" encoding="UTF-8"?>
<svg version="1.1" xmlns="http://www.w3.org/2000/svg" width="512" height="512">
<path d="M0 0 C2.45872872 2.69197368 3.45583163 4.95031516 4.140625 8.5 C4.32004639 9.37664307 4.49946777 10.25328613 4.68432617 11.15649414 C4.96433472 12.56402954 4.96433472 12.56402954 5.25 14 C11.84642518 44.67476554 25.62259681 73.2390253 46.328125 96.94140625 C47.91358625 98.89359802 48.89254304 100.76047592 50 103 C50.598125 103.28875 51.19625 103.5775 51.8125 103.875 C54.37947697 105.19515958 55.57189466 106.94436728 57.33984375 109.171875 C60.25462512 112.38156366 63.68689446 114.96433666 67.07421875 117.65625 C68.89946692 119.11839806 70.69925018 120.6136504 72.45703125 122.15625 C92.48853365 139.56946153 118.64627135 151.48904167 144.359375 157.5234375 C145.99386597 157.9097937 145.99386597 157.9097937 147.66137695 158.30395508 C149.80884365 158.80117387 151.96107399 159.27834077 154.11791992 159.7331543 C161.47377886 161.40881328 161.47377886 161.40881328 164.21484375 164.48828125 C165 167 165 167 164.625 170.125 C162.50237881 173.88040671 159.9214307 174.6882892 156 176 C152.81317986 176.83398708 149.59680493 177.50356665 146.375 178.1875 C97.87765035 189.2576398 56.15620822 220.55669497 29.4140625 262.08203125 C17.68649338 280.80922697 9.86201915 301.23359408 4.875 322.7265625 C4.70371582 323.46011963 4.53243164 324.19367676 4.35595703 324.94946289 C3.90460407 326.93243743 3.47873659 328.92116407 3.0546875 330.91015625 C1.89752529 334.30021294 1.15875989 335.38838781 -2 337 C-5.5625 337.125 -5.5625 337.125 -9 336 C-11.82068683 330.69375745 -12.94904347 325.21546705 -14.1875 319.375 C-21.12604159 288.72142747 -36.56639475 259.34243136 -57.90625 236.28515625 C-59.72358746 234.30168159 -61.42225243 232.26815328 -63.125 230.1875 C-89.9255192 199.79327482 -130.09324042 182.90313828 -168.91796875 174.73828125 C-171 174 -171 174 -173 171 C-173.4375 168.0625 -173.4375 168.0625 -173 165 C-168.58257243 160.05554744 -162.57012445 159.48807753 -156.375 158.1875 C-128.153252 151.77291239 -102.91597557 139.28251118 -80.27294922 121.23583984 C-77.83837887 119.31091945 -75.97407428 117.99135809 -73 117 C-73 116.34 -73 115.68 -73 115 C-71.49609375 113.51953125 -71.49609375 113.51953125 -69.4375 111.8125 C-39.15890122 85.94289016 -19.97614906 47.33104367 -12.29199219 8.69726562 C-11.59213574 5.2437979 -10.98154376 2.97231563 -9 0 C-5.4314543 -1.18951523 -3.60804584 -0.97717908 0 0 Z " fill="#000000" transform="translate(337,107)"/>
<path d="M0 0 C2.5 0.875 2.5 0.875 3.55078125 3.00390625 C4.60842254 6.20294472 5.40291357 9.41069787 6.1875 12.6875 C13.4399047 41.08071725 31.65127793 66.41281443 56.5 81.875 C57.10972656 82.25930176 57.71945313 82.64360352 58.34765625 83.03955078 C71.27543896 91.07959634 84.91593993 95.63699405 99.62890625 99.33203125 C101.5 99.875 101.5 99.875 102.5 100.875 C102.54063832 102.54117115 102.542721 104.20888095 102.5 105.875 C97.8329836 108.43929473 93.42662113 109.75514479 88.3125 111 C74.3895334 114.64250226 60.72784955 120.77878801 49.5 129.875 C48.74710693 130.47417236 48.74710693 130.47417236 47.97900391 131.08544922 C25.46792288 149.08497058 10.32456689 172.71191232 4.375 201.0625 C3.5 204.875 3.5 204.875 1.5 206.875 C-1 207.125 -1 207.125 -3.5 206.875 C-5.67613506 204.69886494 -5.9286456 203.84948742 -6.61328125 200.9453125 C-6.80647949 200.15592285 -6.99967773 199.3665332 -7.19873047 198.55322266 C-7.50254639 197.28937744 -7.50254639 197.28937744 -7.8125 196 C-15.27486127 166.49802629 -33.14984085 140.44248611 -59.27929688 124.47143555 C-73.31546915 116.13868007 -87.85466484 111.31392801 -103.5 106.875 C-104.1875 104.5625 -104.1875 104.5625 -104.5 101.875 C-102.64824262 99.17589237 -100.73749761 98.42147258 -97.61328125 97.734375 C-96.46508911 97.46512207 -96.46508911 97.46512207 -95.29370117 97.19042969 C-94.47490479 97.00383789 -93.6561084 96.81724609 -92.8125 96.625 C-61.5046506 88.87762379 -35.98063353 68.68267016 -19.23828125 41.24609375 C-13.68257698 31.6728294 -10.50642781 21.47791619 -7.5 10.875 C-6.91946104 8.83253701 -6.33680274 6.79067222 -5.75 4.75 C-5.54890625 4.00492188 -5.3478125 3.25984375 -5.140625 2.4921875 C-4.07289898 -0.20316964 -2.74844575 -0.13742229 0 0 Z " fill="#000000" transform="translate(122.5,18.125)"/>
<path d="M0 0 C1.65 0 3.3 0 5 0 C5.32871094 1.19753906 5.65742188 2.39507812 5.99609375 3.62890625 C12.15260707 25.07269276 22.57920191 41.54501638 42.32421875 52.9140625 C50.35016377 57.13824409 58.23184041 59.85459925 67 62 C67.33 63.65 67.66 65.3 68 67 C67.47792969 67.17015625 66.95585937 67.3403125 66.41796875 67.515625 C63.94096263 68.33117167 61.47037648 69.16458967 59 70 C58.12214844 70.29003906 57.24429688 70.58007812 56.33984375 70.87890625 C46.09991181 74.40026414 37.60334454 78.90382281 29.77734375 86.4609375 C28 88 28 88 26 88 C25.72414063 88.60328125 25.44828125 89.2065625 25.1640625 89.828125 C24 92 24 92 21.375 94.75 C12.88568235 104.46393804 8.62991701 117.85373923 5 130 C3.35 130 1.7 130 0 130 C-0.35191406 128.76765625 -0.70382813 127.5353125 -1.06640625 126.265625 C-7.16618917 105.54858984 -17.65595416 87.94805894 -36.85498047 76.93603516 C-44.86006171 72.65963106 -53.07467732 69.74517483 -62 68 C-62.495 65.525 -62.495 65.525 -63 63 C-61.1746875 62.4121875 -61.1746875 62.4121875 -59.3125 61.8125 C-37.03666444 54.31717168 -18.71793885 43.80364365 -7.6875 22.1875 C-4.16311682 15.02543151 -1.84269581 7.75871919 0 0 Z " fill="#000000" transform="translate(151,351)"/>
</svg>
